<?xml version="1.0" encoding="UTF-8"?>
<svg width="171px" height="30px" viewBox="0 0 171 30" version="1.1" xmlns="http://www.w3.org/2000/svg" xmlns:xlink="http://www.w3.org/1999/xlink">
    <!-- Generator: Sketch 63.1 (92452) - https://sketch.com -->
    <title>Group 8</title>
    <desc>Created with Sketch.</desc>
    <g id="Page-1" stroke="none" stroke-width="1" fill="none" fill-rule="evenodd">
        <g id="Artboard" transform="translate(-24.000000, -46.000000)">
            <g id="Menu" transform="translate(24.000000, 46.000000)">
                <g id="Group-8">
                    <path d="M13.5789924,14.8072106 C12.5994061,14.012876 11.1541884,13.2413672 9.16084423,12.4484373 C6.98939343,11.5894885 6.10610896,11.0613368 5.74678925,10.7688166 C5.32257799,10.4239728 5.12514199,9.97202388 5.12514199,9.34765305 C5.12514199,8.90132272 5.12514199,7.54266651 8.62548893,7.54266651 C10.5042374,7.54266651 12.2093665,7.85169144 13.6935881,8.46096219 C13.8696237,8.53330212 14.0677501,8.52276718 14.2351565,8.43181552 C14.4022177,8.34121503 14.5223361,8.18003043 14.5620304,7.99110383 L15.2309656,4.80814702 C15.3013799,4.47208241 15.104289,4.13742245 14.7787958,4.04295915 C13.5537952,3.68687815 11.9701652,3.47091186 10.0638033,3.39927426 L10.0638033,0.705841039 C10.0786455,0.523937727 10.0172056,0.344492567 9.89639687,0.210347653 C9.77420746,0.0765539038 9.60300422,0 9.42489762,0 L7.22376238,0 C7.04427511,0 6.87307187,0.0765539038 6.75122763,0.210698818 C6.62938338,0.344843732 6.56863385,0.525342386 6.58347606,0.706894534 L6.60176996,3.54746576 C4.67297214,3.84700925 3.18460846,4.57918764 2.17119572,5.7274962 C1.06010049,6.98747513 0.496441425,8.46377151 0.496441425,10.1156502 C0.496441425,12.0287955 1.30344381,13.6557415 2.89915467,14.9536463 C3.83352398,15.7019782 5.29047738,16.4724336 7.35458099,17.309259 C8.92751078,17.9410043 10.0130636,18.4923329 10.5805195,18.9484958 C11.1704113,19.4225682 11.457591,19.9728433 11.457591,20.6305747 C11.457591,21.857193 10.0551741,22.4794569 7.28865393,22.4794569 C5.26217362,22.4794569 3.32923378,22.1247805 1.54229994,21.4256116 C1.36695469,21.3567833 1.17020902,21.3697764 1.00487363,21.4617816 C0.839538245,21.5534356 0.721836016,21.7139178 0.68317722,21.9007374 L0.0138968022,25.1275898 C-0.0582432737,25.4762964 0.157486618,25.8197355 0.498512432,25.8994498 C2.40245817,26.3468337 4.43894835,26.5933513 6.56173049,26.6347887 L6.57312103,29.3075032 C6.56311116,29.4872995 6.60004412,29.6635842 6.72154319,29.7945687 C6.84304227,29.9259042 7.0121745,30 7.1892456,30 L9.42524278,30 C9.42800413,30 9.43076547,30 9.43283648,30 C9.78801417,30 10.0751938,29.7074798 10.0751938,29.3464825 C10.0751938,29.2962659 10.0696711,29.2471029 10.0589709,29.200398 L10.0672549,26.4163643 C13.9521188,25.7203558 16,23.3728199 16,19.5995552 C16.0006899,17.7303055 15.1857487,16.1184596 13.5789924,14.8072106 Z" id="Path" fill="#2A9D8F" fill-rule="nonzero"></path>
                    <text id="Billpay-Dashboard" font-family="BrandonGrotesque-Bold, Brandon Grotesque" font-size="20" font-weight="bold" fill="#454545">
                        <tspan x="28" y="21">Billpay Dashboard</tspan>
                    </text>
                </g>
            </g>
        </g>
    </g>
</svg>