<?xml version="1.0" encoding="UTF-8"?>
<svg width="171px" height="30px" viewBox="0 0 171 30" version="1.1" xmlns="http://www.w3.org/2000/svg" xmlns:xlink="http://www.w3.org/1999/xlink">
    <!-- Generator: Sketch 63.1 (92452) - https://sketch.com -->
    <title>Group 8</title>
    <desc>Created with Sketch.</desc>
    <g id="Page-1" stroke="none" stroke-width="1" fill="none" fill-rule="evenodd">
        <g id="Artboard" transform="translate(-24.000000, -46.000000)" fill-rule="nonzero">
            <g id="Menu" transform="translate(24.000000, 46.000000)">
                <g id="Group-8">
                    <path d="M13.5789924,14.8072106 C12.5994061,14.012876 11.1541884,13.2413672 9.16084423,12.4484373 C6.98939343,11.5894885 6.10610896,11.0613368 5.74678925,10.7688166 C5.32257799,10.4239728 5.12514199,9.97202388 5.12514199,9.34765305 C5.12514199,8.90132272 5.12514199,7.54266651 8.62548893,7.54266651 C10.5042374,7.54266651 12.2093665,7.85169144 13.6935881,8.46096219 C13.8696237,8.53330212 14.0677501,8.52276718 14.2351565,8.43181552 C14.4022177,8.34121503 14.5223361,8.18003043 14.5620304,7.99110383 L15.2309656,4.80814702 C15.3013799,4.47208241 15.104289,4.13742245 14.7787958,4.04295915 C13.5537952,3.68687815 11.9701652,3.47091186 10.0638033,3.39927426 L10.0638033,0.705841039 C10.0786455,0.523937727 10.0172056,0.344492567 9.89639687,0.210347653 C9.77420746,0.0765539038 9.60300422,0 9.42489762,0 L7.22376238,0 C7.04427511,0 6.87307187,0.0765539038 6.75122763,0.210698818 C6.62938338,0.344843732 6.56863385,0.525342386 6.58347606,0.706894534 L6.60176996,3.54746576 C4.67297214,3.84700925 3.18460846,4.57918764 2.17119572,5.7274962 C1.06010049,6.98747513 0.496441425,8.46377151 0.496441425,10.1156502 C0.496441425,12.0287955 1.30344381,13.6557415 2.89915467,14.9536463 C3.83352398,15.7019782 5.29047738,16.4724336 7.35458099,17.309259 C8.92751078,17.9410043 10.0130636,18.4923329 10.5805195,18.9484958 C11.1704113,19.4225682 11.457591,19.9728433 11.457591,20.6305747 C11.457591,21.857193 10.0551741,22.4794569 7.28865393,22.4794569 C5.26217362,22.4794569 3.32923378,22.1247805 1.54229994,21.4256116 C1.36695469,21.3567833 1.17020902,21.3697764 1.00487363,21.4617816 C0.839538245,21.5534356 0.721836016,21.7139178 0.68317722,21.9007374 L0.0138968022,25.1275898 C-0.0582432737,25.4762964 0.157486618,25.8197355 0.498512432,25.8994498 C2.40245817,26.3468337 4.43894835,26.5933513 6.56173049,26.6347887 L6.57312103,29.3075032 C6.56311116,29.4872995 6.60004412,29.6635842 6.72154319,29.7945687 C6.84304227,29.9259042 7.0121745,30 7.1892456,30 L9.42524278,30 C9.42800413,30 9.43076547,30 9.43283648,30 C9.78801417,30 10.0751938,29.7074798 10.0751938,29.3464825 C10.0751938,29.2962659 10.0696711,29.2471029 10.0589709,29.200398 L10.0672549,26.4163643 C13.9521188,25.7203558 16,23.3728199 16,19.5995552 C16.0006899,17.7303055 15.1857487,16.1184596 13.5789924,14.8072106 Z" id="Path" fill="#2A9D8F"></path>
                    <path d="M35.04,21 C37.48,21 39.4,19.38 39.4,17.14 C39.4,15.3 37.86,14.22 36.8,13.88 C37.74,13.44 39,12.24 39,10.7 C39,8.6 37.16,7 34.78,7 L30.2,7 C29.98,7 29.82,7.18 29.82,7.38 L29.82,20.62 C29.82,20.82 29.98,21 30.2,21 L35.04,21 Z M34.54,12.88 L32.4,12.88 L32.4,9.38 L34.54,9.38 C35.56,9.38 36.26,10.08 36.26,11.08 C36.26,12.08 35.56,12.88 34.54,12.88 Z M34.82,18.64 L32.4,18.64 L32.4,15.08 L34.58,15.08 C35.62,15.08 36.62,15.82 36.62,16.82 C36.62,17.86 35.82,18.64 34.82,18.64 Z M42.38,10.16 C43.16,10.16 43.78,9.54 43.78,8.78 C43.78,8.02 43.16,7.4 42.38,7.4 C41.62,7.4 41.02,8.02 41.02,8.78 C41.02,9.54 41.62,10.16 42.38,10.16 Z M43.24,21 C43.44,21 43.62,20.82 43.62,20.62 L43.62,13.38 C43.62,13.16 43.44,13 43.24,13 L41.58,13 C41.38,13 41.2,13.16 41.2,13.38 L41.2,20.62 C41.2,20.82 41.38,21 41.58,21 L43.24,21 Z M48.08,21 C48.28,21 48.46,20.82 48.46,20.62 L48.46,7.38 C48.46,7.18 48.28,7 48.08,7 L46.4,7 C46.2,7 46.02,7.18 46.02,7.38 L46.02,20.62 C46.02,20.82 46.2,21 46.4,21 L48.08,21 Z M52.92,21 C53.12,21 53.3,20.82 53.3,20.62 L53.3,7.38 C53.3,7.18 53.12,7 52.92,7 L51.24,7 C51.04,7 50.86,7.18 50.86,7.38 L50.86,20.62 C50.86,20.82 51.04,21 51.24,21 L52.92,21 Z M57.68,27 C58.04,27 58.16,26.86 58.16,26.62 L58.16,20.76 C58.44,20.92 59.16,21.2 59.94,21.2 C62.1,21.2 63.9,19.36 63.9,17 C63.9,14.7 62.24,12.8 60.04,12.8 C58.74,12.8 57.76,13.5 57.46,13.9 L57.2,13.24 C57.14,13.08 57,13 56.86,13 L56.08,13 C55.88,13 55.7,13.16 55.7,13.38 L55.7,26.62 C55.7,26.82 55.88,27 56.08,27 L57.68,27 Z M59.62,19.04 C58.62,19.04 58.06,18.58 58.06,18.58 L58.06,16.18 C58.18,15.76 58.68,14.96 59.7,14.96 C60.8,14.96 61.56,15.88 61.56,17 C61.56,18.12 60.74,19.04 59.62,19.04 Z M67.82,21.2 C69.06,21.2 69.8,20.6 70.26,20.18 L70.5,20.72 C70.6,20.94 70.7,21 70.84,21 L71.56,21 C71.76,21 71.94,20.82 71.94,20.62 L71.94,16.28 C71.94,14.1 71.36,12.8 68.86,12.8 C67.58,12.8 66.3,13.12 66.14,13.18 C65.96,13.24 65.8,13.38 65.86,13.68 L66.04,14.72 C66.08,14.98 66.22,15.16 66.5,15.08 C66.96,14.94 68,14.78 68.74,14.78 C69.48,14.78 69.8,15.14 69.78,16.16 C69.78,16.16 69.12,15.94 68.32,15.94 C66.28,15.94 65.12,17.04 65.12,18.46 C65.12,20.16 66.22,21.2 67.82,21.2 Z M68.36,19.5 C67.74,19.5 67.32,19.06 67.32,18.46 C67.32,17.82 67.84,17.38 68.62,17.38 C69.2,17.38 69.74,17.62 69.74,17.62 L69.74,18.72 C69.62,18.96 69,19.5 68.36,19.5 Z M75.68,27 C75.84,27 75.96,26.88 76.02,26.76 L82.14,13.52 C82.28,13.26 82.12,13 81.8,13 L80.2,13 C79.96,13 79.82,13.02 79.72,13.22 L77.72,17.74 L77.7,17.74 L75.68,13.22 C75.62,13.1 75.52,13 75.34,13 L73.54,13 C73.24,13 73.08,13.26 73.2,13.52 L76.46,20.44 L73.62,26.46 C73.48,26.74 73.66,27 73.96,27 L75.68,27 Z M93.64,21 C97.5,21 100.66,17.86 100.66,13.98 C100.66,10.14 97.5,7 93.64,7 L88.9,7 C88.7,7 88.54,7.18 88.54,7.38 L88.54,20.62 C88.54,20.82 88.7,21 88.9,21 L93.64,21 Z M93.4,18.56 L91.12,18.56 L91.12,9.42 L93.4,9.42 C96,9.42 97.9,11.38 97.9,13.98 C97.9,16.6 96,18.56 93.4,18.56 Z M104.42,21.2 C105.66,21.2 106.4,20.6 106.86,20.18 L107.1,20.72 C107.2,20.94 107.3,21 107.44,21 L108.16,21 C108.36,21 108.54,20.82 108.54,20.62 L108.54,16.28 C108.54,14.1 107.96,12.8 105.46,12.8 C104.18,12.8 102.9,13.12 102.74,13.18 C102.56,13.24 102.4,13.38 102.46,13.68 L102.64,14.72 C102.68,14.98 102.82,15.16 103.1,15.08 C103.56,14.94 104.6,14.78 105.34,14.78 C106.08,14.78 106.4,15.14 106.38,16.16 C106.38,16.16 105.72,15.94 104.92,15.94 C102.88,15.94 101.72,17.04 101.72,18.46 C101.72,20.16 102.82,21.2 104.42,21.2 Z M104.96,19.5 C104.34,19.5 103.92,19.06 103.92,18.46 C103.92,17.82 104.44,17.38 105.22,17.38 C105.8,17.38 106.34,17.62 106.34,17.62 L106.34,18.72 C106.22,18.96 105.6,19.5 104.96,19.5 Z M113.18,21.2 C115.2,21.2 116.36,20.08 116.36,18.76 C116.36,17.265 115.294653,16.5965625 113.850464,16.0153733 L113.66,15.94 C112.92,15.64 112.56,15.52 112.56,15.16 C112.56,14.9 112.76,14.7 113.24,14.7 C114,14.7 114.9,15.12 114.9,15.12 C115.06,15.18 115.28,15.16 115.38,14.98 L115.88,13.96 C115.98,13.76 115.88,13.54 115.7,13.42 C115.28,13.14 114.42,12.8 113.24,12.8 C111.2,12.8 110.3,13.94 110.3,15.16 C110.3,16.38 111.02,17.2 112.56,17.8 C113.62,18.22 113.9,18.44 113.9,18.8 C113.9,19.14 113.62,19.3 113.22,19.3 C112.3,19.3 111.4,18.82 111.4,18.82 C111.22,18.72 111.02,18.76 110.94,18.96 L110.4,20.04 C110.32,20.2 110.4,20.36 110.52,20.46 C110.94,20.78 111.86,21.2 113.18,21.2 Z M120.16,21 C120.46,21 120.58,20.84 120.58,20.62 L120.58,16.38 C120.78,15.56 121.4,14.96 122.32,14.96 C123.28,14.96 123.9,15.66 123.9,16.76 L123.9,20.62 C123.9,20.82 124.06,21 124.28,21 L125.9,21 C126.1,21 126.28,20.82 126.28,20.62 L126.28,16.78 C126.28,14.76 125.24,12.8 122.7,12.8 C121.76,12.8 120.98,13.16 120.58,13.46 L120.58,7.38 C120.58,7.18 120.4,7 120.2,7 L118.5,7 C118.3,7 118.12,7.18 118.12,7.38 L118.12,20.62 C118.12,20.82 118.3,21 118.5,21 L120.16,21 Z M132.88,21.2 C135.06,21.2 136.72,19.3 136.72,17 C136.72,14.66 135.14,12.8 132.76,12.8 C131.96,12.8 131.34,13.02 130.98,13.16 L130.98,7.38 C130.98,7.18 130.8,7 130.6,7 L128.9,7 C128.7,7 128.52,7.18 128.52,7.38 L128.52,20.62 C128.52,20.82 128.7,21 128.9,21 L129.68,21 C129.86,21 130,20.84 130.06,20.62 L130.26,20 C130.26,20 131.2,21.2 132.88,21.2 Z M132.58,19.04 C131.52,19.04 131.04,18.22 130.9,17.74 L130.9,15.42 C130.9,15.42 131.46,14.96 132.46,14.96 C133.58,14.96 134.4,15.88 134.4,17 C134.4,18.12 133.64,19.04 132.58,19.04 Z M142,21.2 C144.26,21.2 146.1,19.28 146.1,16.98 C146.1,14.72 144.26,12.8 142,12.8 C139.74,12.8 137.9,14.72 137.9,16.98 C137.9,19.28 139.74,21.2 142,21.2 Z M142,19.04 C140.92,19.04 140.08,18.12 140.08,16.98 C140.08,15.86 140.92,14.96 142,14.96 C143.06,14.96 143.92,15.86 143.92,16.98 C143.92,18.12 143.06,19.04 142,19.04 Z M150,21.2 C151.24,21.2 151.98,20.6 152.44,20.18 L152.68,20.72 C152.78,20.94 152.88,21 153.02,21 L153.74,21 C153.94,21 154.12,20.82 154.12,20.62 L154.12,16.28 C154.12,14.1 153.54,12.8 151.04,12.8 C149.76,12.8 148.48,13.12 148.32,13.18 C148.14,13.24 147.98,13.38 148.04,13.68 L148.22,14.72 C148.26,14.98 148.4,15.16 148.68,15.08 C149.14,14.94 150.18,14.78 150.92,14.78 C151.66,14.78 151.98,15.14 151.96,16.16 C151.96,16.16 151.3,15.94 150.5,15.94 C148.46,15.94 147.3,17.04 147.3,18.46 C147.3,20.16 148.4,21.2 150,21.2 Z M150.54,19.5 C149.92,19.5 149.5,19.06 149.5,18.46 C149.5,17.82 150.02,17.38 150.8,17.38 C151.38,17.38 151.92,17.62 151.92,17.62 L151.92,18.72 C151.8,18.96 151.18,19.5 150.54,19.5 Z M158.34,21 C158.62,21 158.8,20.9 158.8,20.62 L158.8,15.78 C158.94,15.5 159.42,14.96 160.22,14.96 C160.44,14.96 160.74,15.06 160.8,15.08 C160.96,15.16 161.16,15.08 161.26,14.9 L162,13.6 C162.24,13.1 161.4,12.8 160.46,12.8 C159.22,12.8 158.48,13.64 158.2,14.04 L157.92,13.26 C157.86,13.1 157.74,13 157.56,13 L156.8,13 C156.6,13 156.42,13.16 156.42,13.38 L156.42,20.62 C156.42,20.82 156.6,21 156.8,21 L158.34,21 Z M166.42,21.2 C168.1,21.2 169.04,20 169.04,20 L169.24,20.62 C169.3,20.84 169.44,21 169.62,21 L170.4,21 C170.6,21 170.78,20.82 170.78,20.62 L170.78,7.38 C170.78,7.18 170.6,7 170.4,7 L168.7,7 C168.5,7 168.32,7.18 168.32,7.38 L168.32,13.16 C167.96,13.02 167.34,12.8 166.54,12.8 C164.16,12.8 162.58,14.66 162.58,17 C162.58,19.3 164.24,21.2 166.42,21.2 Z M166.72,19.04 C165.66,19.04 164.9,18.12 164.9,17 C164.9,15.88 165.72,14.96 166.84,14.96 C167.84,14.96 168.4,15.42 168.4,15.42 L168.4,17.74 C168.26,18.22 167.78,19.04 166.72,19.04 Z" id="BillpayDashboard" fill="#454545"></path>
                </g>
            </g>
        </g>
    </g>
</svg>