<?xml version="1.0" encoding="UTF-8"?>
<svg width="140px" viewBox="0 0 123 29" version="1.1" xmlns="http://www.w3.org/2000/svg" xmlns:xlink="http://www.w3.org/1999/xlink">
    <title>BeanPay Logo</title>
    <g id="Page-1" stroke="none" stroke-width="1" fill="none" fill-rule="evenodd">
        <g id="Artboard" transform="translate(-25.000000, -395.000000)">
            <g id="Lockup" transform="translate(24.000000, 395.000000)">
                <path d="M51.371,21 C54.017,21 55.949,19.299 55.949,16.947 C55.949,15.015 54.437,13.986 53.324,13.524 C54.311,12.957 55.508,11.802 55.508,10.185 C55.508,7.98 53.681,6.3 51.14,6.3 L46.436,6.3 C46.205,6.3 46.037,6.489 46.037,6.699 L46.037,20.601 C46.037,20.811 46.205,21 46.436,21 L51.371,21 Z M51.014,12.684 L48.179,12.684 L48.179,8.274 L51.014,8.274 C52.358,8.274 53.177,9.156 53.177,10.437 C53.177,11.697 52.358,12.684 51.014,12.684 Z M51.35,19.068 L48.158,19.068 L48.158,14.574 L51.035,14.574 C52.4,14.574 53.618,15.498 53.618,16.779 C53.618,18.081 52.631,19.068 51.35,19.068 Z M62.75,21.24 C64.358,21.24 65.606,20.64 66.302,20.04 C66.59,19.8 66.518,19.608 66.35,19.416 L65.678,18.504 C65.486,18.264 65.318,18.36 65.03,18.528 C64.55,18.84 63.758,19.224 62.894,19.224 C61.334,19.224 60.206,17.952 60.134,16.656 L66.662,16.656 C66.878,16.656 67.07,16.488 67.094,16.248 C67.118,16.08 67.142,15.768 67.142,15.6 C67.142,13.032 65.222,11.16 62.726,11.16 C59.846,11.16 57.926,13.488 57.926,16.2 C57.926,18.96 59.846,21.24 62.75,21.24 Z M64.91,15.144 L60.254,15.144 C60.398,13.944 61.406,13.008 62.702,13.008 C63.878,13.008 64.838,13.992 64.91,15.144 Z M71.846,21.24 C73.334,21.24 74.27,20.52 74.798,20.016 L75.038,20.664 C75.134,20.904 75.23,21 75.446,21 L76.118,21 C76.358,21 76.574,20.784 76.574,20.544 L76.574,15.432 C76.574,13.032 76.286,11.16 73.214,11.16 C71.5187273,11.16 70.1952066,11.5973554 69.9322727,11.6997363 L69.902,11.712 C69.686,11.784 69.518,11.952 69.59,12.264 L69.782,13.152 C69.854,13.416 70.022,13.608 70.31,13.536 C70.814,13.392 71.894,13.104 72.998,13.104 C74.222,13.104 74.51,13.704 74.486,15.216 C74.486,15.216 73.598,14.928 72.59,14.928 C70.142,14.928 68.75,16.272 68.75,18.024 C68.75,20.016 70.046,21.24 71.846,21.24 Z M72.302,19.536 C71.414,19.536 70.838,18.864 70.838,18 C70.838,17.016 71.63,16.416 72.782,16.416 C73.646,16.416 74.318,16.704 74.462,16.8 L74.462,18.336 C74.174,18.816 73.262,19.536 72.302,19.536 Z M81.302,21 C81.71,21 81.854,20.856 81.854,20.544 L81.854,14.688 C81.974,14.352 83.006,13.248 84.518,13.248 C85.766,13.248 86.51,14.088 86.51,15.624 L86.51,20.544 C86.51,20.784 86.702,21 86.966,21 L88.334,21 C88.574,21 88.79,20.784 88.79,20.544 L88.79,15.72 C88.79,13.224 87.71,11.16 84.782,11.16 C82.862,11.16 81.59,12.312 81.422,12.504 L81.134,11.688 C81.086,11.52 80.942,11.4 80.75,11.4 L80.054,11.4 C79.814,11.4 79.598,11.616 79.598,11.856 L79.598,20.544 C79.598,20.784 79.814,21 80.054,21 L81.302,21 Z M94.031,21 C94.241,21 94.43,20.811 94.43,20.601 L94.43,15.666 L97.475,15.666 C100.037,15.666 102.158,13.545 102.158,10.941 C102.158,8.4 100.037,6.3 97.454,6.3 L92.666,6.3 C92.435,6.3 92.267,6.489 92.267,6.699 L92.267,20.601 C92.267,20.811 92.435,21 92.666,21 L94.031,21 Z M97.328,13.608 L94.43,13.608 L94.43,8.4 L97.328,8.4 C98.777,8.4 99.995,9.492 99.995,10.92 C99.995,12.432 98.777,13.608 97.328,13.608 Z M106.664,21.24 C108.152,21.24 109.088,20.52 109.616,20.016 L109.856,20.664 C109.952,20.904 110.048,21 110.264,21 L110.936,21 C111.176,21 111.392,20.784 111.392,20.544 L111.392,15.432 C111.392,13.032 111.104,11.16 108.032,11.16 C106.336727,11.16 105.013207,11.5973554 104.750273,11.6997363 L104.72,11.712 C104.504,11.784 104.336,11.952 104.408,12.264 L104.6,13.152 C104.672,13.416 104.84,13.608 105.128,13.536 C105.632,13.392 106.712,13.104 107.816,13.104 C109.04,13.104 109.328,13.704 109.304,15.216 C109.304,15.216 108.416,14.928 107.408,14.928 C104.96,14.928 103.568,16.272 103.568,18.024 C103.568,20.016 104.864,21.24 106.664,21.24 Z M107.12,19.536 C106.232,19.536 105.656,18.864 105.656,18 C105.656,17.016 106.448,16.416 107.6,16.416 C108.464,16.416 109.136,16.704 109.28,16.8 L109.28,18.336 C108.992,18.816 108.08,19.536 107.12,19.536 Z M115.928,28.2 C116.12,28.2 116.264,28.056 116.336,27.912 L123.68,12.024 C123.848,11.712 123.656,11.4 123.272,11.4 L121.904,11.4 C121.688,11.4 121.496,11.448 121.4,11.664 L118.52,18.048 L118.496,18.048 L115.52,11.664 C115.448,11.52 115.256,11.4 115.112,11.4 L113.528,11.4 C113.168,11.4 112.976,11.712 113.12,12.024 L117.296,20.664 L114.08,27.552 C113.912,27.888 114.128,28.2 114.488,28.2 L115.928,28.2 Z" id="BeanPay" fill="#31393C" fill-rule="nonzero"></path>
                <g id="Pixel-Perfect">
                    <polygon id="Yellow" fill="#E9C369" points="17.7 0 25.9272413 4.75 25.9272413 14.25 17.7 19 9.47275866 14.25 9.47275866 4.75"></polygon>
                    <polygon id="Orange" fill="#E76E51" points="9.5 4.77 17.7272413 9.52 17.7272413 19.02 9.5 23.77 1.27275866 19.02 1.27275866 9.52"></polygon>
                    <polygon id="Green" fill="#299C8E" points="25.93 4.75 34.1572413 9.5 34.1572413 19 25.93 23.75 17.7027587 19 17.7027587 9.5"></polygon>
                    <polygon id="Blue" fill="#264653" points="17.7 9.5 25.9272413 14.25 25.9272413 23.75 17.7 28.5 9.47275866 23.75 9.47275866 14.25"></polygon>
                    <polygon id="Yellow-Trans" fill-opacity="0.5" fill="#E9C369" points="17.7 0 25.9272413 4.75 25.9272413 14.25 17.7 19 9.47275866 14.25 9.47275866 4.75"></polygon>
                    <polygon id="Red-Trans" fill-opacity="0.5" fill="#E76E51" points="9.5 4.765 17.7272413 9.515 17.7272413 19.015 9.5 23.765 1.27275866 19.015 1.27275866 9.515"></polygon>
                    <polygon id="Green-Trans" fill-opacity="0.5" fill="#299C8E" points="25.93 4.75 34.1572413 9.5 34.1572413 19 25.93 23.75 17.7027587 19 17.7027587 9.5"></polygon>
                    <polygon id="Blue-Trans" fill-opacity="0.5" fill="#264653" points="17.7 9.5 25.9272413 14.25 25.9272413 23.75 17.7 28.5 9.47275866 23.75 9.47275866 14.25"></polygon>
                </g>
            </g>
        </g>
    </g>
</svg>
