<?xml version="1.0" encoding="UTF-8"?>
<svg width="34px" height="29px" viewBox="0 0 34 29" version="1.1" xmlns="http://www.w3.org/2000/svg" xmlns:xlink="http://www.w3.org/1999/xlink">
    <!-- Generator: Sketch 63.1 (92452) - https://sketch.com -->
    <title>Pixel Perfect</title>
    <desc>Created with Sketch.</desc>
    <g id="Page-1" stroke="none" stroke-width="1" fill="none" fill-rule="evenodd">
        <g id="Artboard" transform="translate(-25.000000, -395.000000)">
            <g id="Lockup" transform="translate(24.000000, 395.000000)">
                <g id="Pixel-Perfect">
                    <polygon id="Yellow" fill="#E9C369" points="17.7 0 25.9272413 4.75 25.9272413 14.25 17.7 19 9.47275866 14.25 9.47275866 4.75"></polygon>
                    <polygon id="Orange" fill="#E76E51" points="9.5 4.77 17.7272413 9.52 17.7272413 19.02 9.5 23.77 1.27275866 19.02 1.27275866 9.52"></polygon>
                    <polygon id="Green" fill="#299C8E" points="25.93 4.75 34.1572413 9.5 34.1572413 19 25.93 23.75 17.7027587 19 17.7027587 9.5"></polygon>
                    <polygon id="Blue" fill="#264653" points="17.7 9.5 25.9272413 14.25 25.9272413 23.75 17.7 28.5 9.47275866 23.75 9.47275866 14.25"></polygon>
                    <polygon id="Yellow-Trans" fill-opacity="0.5" fill="#E9C369" points="17.7 0 25.9272413 4.75 25.9272413 14.25 17.7 19 9.47275866 14.25 9.47275866 4.75"></polygon>
                    <polygon id="Red-Trans" fill-opacity="0.5" fill="#E76E51" points="9.5 4.765 17.7272413 9.515 17.7272413 19.015 9.5 23.765 1.27275866 19.015 1.27275866 9.515"></polygon>
                    <polygon id="Green-Trans" fill-opacity="0.5" fill="#299C8E" points="25.93 4.75 34.1572413 9.5 34.1572413 19 25.93 23.75 17.7027587 19 17.7027587 9.5"></polygon>
                    <polygon id="Blue-Trans" fill-opacity="0.5" fill="#264653" points="17.7 9.5 25.9272413 14.25 25.9272413 23.75 17.7 28.5 9.47275866 23.75 9.47275866 14.25"></polygon>
                </g>
            </g>
        </g>
    </g>
</svg>