<?xml version="1.0" encoding="UTF-8"?>
<svg width="340px" height="241px" viewBox="0 0 340 241" version="1.1" xmlns="http://www.w3.org/2000/svg" xmlns:xlink="http://www.w3.org/1999/xlink">
    <!-- Generator: Sketch 63.1 (92452) - https://sketch.com -->
    <title>March</title>
    <desc>Created with Sketch.</desc>
    <defs>
        <rect id="path-1" x="0" y="0" width="43" height="43" rx="2"></rect>
        <filter x="-16.3%" y="-11.6%" width="132.6%" height="132.6%" filterUnits="objectBoundingBox" id="filter-2">
            <feOffset dx="0" dy="2" in="SourceAlpha" result="shadowOffsetOuter1"></feOffset>
            <feGaussianBlur stdDeviation="2" in="shadowOffsetOuter1" result="shadowBlurOuter1"></feGaussianBlur>
            <feColorMatrix values="0 0 0 0 0   0 0 0 0 0   0 0 0 0 0  0 0 0 0.4 0" type="matrix" in="shadowBlurOuter1"></feColorMatrix>
        </filter>
    </defs>
    <g id="Page-1" stroke="none" stroke-width="1" fill="none" fill-rule="evenodd">
        <g id="Artboard" transform="translate(-280.000000, -119.000000)">
            <g id="Upcoming-Bills" transform="translate(246.000000, 46.000000)">
                <g id="March" transform="translate(34.000000, 73.000000)">
                    <rect id="Rectangle" fill="#F9F9F9" x="0" y="0" width="43" height="43" rx="2"></rect>
                    <rect id="Rectangle" fill="#F9F9F9" x="49" y="0" width="43" height="43" rx="2"></rect>
                    <rect id="Rectangle" fill="#F9F9F9" x="99" y="0" width="43" height="43" rx="2"></rect>
                    <rect id="Rectangle" fill="#F9F9F9" x="149" y="0" width="43" height="43" rx="2"></rect>
                    <rect id="Rectangle" fill="#F9F9F9" x="198" y="0" width="43" height="43" rx="2"></rect>
                    <rect id="Rectangle" fill="#F9F9F9" x="248" y="0" width="43" height="43" rx="2"></rect>
                    <rect id="Rectangle" fill="#F9F9F9" x="297" y="0" width="43" height="43" rx="2"></rect>
                    <rect id="Rectangle" fill="#F9F9F9" x="0" y="50" width="43" height="43" rx="2"></rect>
                    <rect id="Rectangle" fill="#F9F9F9" x="49" y="50" width="43" height="43" rx="2"></rect>
                    <rect id="Rectangle" fill="#F9F9F9" x="99" y="50" width="43" height="43" rx="2"></rect>
                    <rect id="Rectangle" fill="#F9F9F9" x="149" y="50" width="43" height="43" rx="2"></rect>
                    <rect id="Rectangle" fill="#F9F9F9" x="198" y="50" width="43" height="43" rx="2"></rect>
                    <rect id="Rectangle" fill="#F9F9F9" x="248" y="50" width="43" height="43" rx="2"></rect>
                    <rect id="Rectangle" fill="#F9F9F9" x="297" y="50" width="43" height="43" rx="2"></rect>
                    <g id="Group-7" transform="translate(0.000000, 99.000000)">
                        <rect id="Rectangle" fill="#E76F51" x="0" y="0" width="43" height="43" rx="2"></rect>
                        <text id="$130" font-family="BrandonGrotesque-Black, Brandon Grotesque" font-size="12" font-weight="700" fill="#FFFFFF">
                            <tspan x="9.254" y="29">$130</tspan>
                        </text>
                    </g>
                    <rect id="Rectangle" fill="#F9F9F9" x="49" y="99" width="43" height="43" rx="2"></rect>
                    <rect id="Rectangle" fill="#F9F9F9" x="99" y="99" width="43" height="43" rx="2"></rect>
                    <rect id="Rectangle" fill="#F9F9F9" x="149" y="99" width="43" height="43" rx="2"></rect>
                    <rect id="Rectangle" fill="#F9F9F9" x="198" y="99" width="43" height="43" rx="2"></rect>
                    <rect id="Rectangle" fill="#F9F9F9" x="248" y="99" width="43" height="43" rx="2"></rect>
                    <rect id="Rectangle" fill="#F9F9F9" x="297" y="99" width="43" height="43" rx="2"></rect>
                    <rect id="Rectangle" fill="#F9F9F9" x="0" y="149" width="43" height="43" rx="2"></rect>
                    <g id="Group-5" transform="translate(49.000000, 149.000000)">
                        <g id="Rectangle">
                            <use fill="black" fill-opacity="1" filter="url(#filter-2)" xlink:href="#path-1"></use>
                            <use fill="#E76F51" fill-rule="evenodd" xlink:href="#path-1"></use>
                        </g>
                        <text id="23rd" font-family="BrandonGrotesque-Black, Brandon Grotesque" font-size="8" font-weight="700" fill="#FFFFFF">
                            <tspan x="14.468" y="8">23rd</tspan>
                        </text>
                        <text id="$421" font-family="BrandonGrotesque-Black, Brandon Grotesque" font-size="12" font-weight="700" fill="#FFFFFF">
                            <tspan x="9.934" y="29">$421</tspan>
                        </text>
                    </g>
                    <rect id="Rectangle" fill="#F9F9F9" x="99" y="149" width="43" height="43" rx="2"></rect>
                    <g id="Group-6" transform="translate(149.000000, 149.000000)">
                        <rect id="Rectangle" fill="#D4D4D4" x="0" y="0" width="43" height="43" rx="2"></rect>
                        <g id="25th" transform="translate(9.000000, 3.000000)" fill="#FFFFFF" font-family="BrandonGrotesque-Black, Brandon Grotesque" font-size="8" font-weight="700">
                            <text>
                                <tspan x="4.84" y="8">25th</tspan>
                            </text>
                        </g>
                    </g>
                    <rect id="Rectangle" fill="#D4D4D4" x="198" y="149" width="43" height="43" rx="2"></rect>
                    <rect id="Rectangle" fill="#D4D4D4" x="248" y="149" width="43" height="43" rx="2"></rect>
                    <rect id="Rectangle" fill="#D4D4D4" x="297" y="149" width="43" height="43" rx="2"></rect>
                    <g id="Group-4" transform="translate(0.000000, 198.000000)" fill="#D4D4D4">
                        <rect id="Rectangle" x="0" y="0" width="43" height="43" rx="2"></rect>
                    </g>
                    <rect id="Rectangle" fill="#D4D4D4" x="49" y="198" width="43" height="43" rx="2"></rect>
                    <rect id="Rectangle" fill="#2A9D8F" x="99" y="198" width="43" height="43" rx="2"></rect>
                    <text id="$1050" font-family="BrandonGrotesque-Black, Brandon Grotesque" font-size="12" font-weight="700" fill="#FFFFFF">
                        <tspan x="104.968" y="227">$1050</tspan>
                    </text>
                </g>
            </g>
        </g>
    </g>
</svg>